# Blender v2.77 (sub 0) OBJ File: ''
# www.blender.org
mtllib shape.mtl
v 1.135517 0.036980 -2.723382
v 0.780307 0.460728 -0.559346
v 0.229059 0.019819 -0.856873
v 0.633054 -0.396445 -2.598895
v 0.931507 0.452965 -3.161278
v 0.341663 1.067998 -1.496092
v -0.199103 1.345853 -2.282837
v -1.058367 0.125392 -2.132106
vt 0.748573 0.750412
vt 0.749279 0.501284
vt 0.999110 0.501077
vt 0.999455 0.750380
vt 0.250471 0.500702
vt 0.249682 0.749677
vt 0.001085 0.750380
vt 0.001517 0.499994
vt 0.499422 0.500239
vt 0.500149 0.750166
vt 0.748355 0.998230
vt 0.500193 0.998728
vt 0.498993 0.250415
vt 0.748953 0.250920
vn 0.5861 -0.7612 0.2776
vn -0.0856 0.6415 -0.7623
vn 0.8171 0.5747 0.0458
vn -0.6651 0.4396 0.6037
vn -0.6541 -0.4258 0.6251
vn -0.2470 -0.4731 -0.8457
usemtl Material
s off
f 1//1 2//1 3//1 4//1
f 5//2 8//2 7//2 6//2
f 1//3 5//3 6//3 2//3
f 2//4 6//4 7//4 3//4
f 3//5 7//5 8//5 4//5
f 5//6 1//6 4//6 8//6
